<svg xmlns="http://www.w3.org/2000/svg" xmlns:xlink="http://www.w3.org/1999/xlink" width="1880" zoomAndPan="magnify" viewBox="0 0 1410 809.999993" height="1080" preserveAspectRatio="xMidYMid meet" version="1.0"><defs><g/><clipPath id="8911aa063f"><path d="M 120.265625 441 L 428.515625 441 L 428.515625 747 L 120.265625 747 Z M 120.265625 441 " clip-rule="nonzero"/></clipPath><clipPath id="fd2101cb04"><path d="M 120.265625 448 L 167 448 L 167 740 L 120.265625 740 Z M 120.265625 448 " clip-rule="nonzero"/></clipPath><clipPath id="910810464a"><path d="M 382 448 L 428.515625 448 L 428.515625 740 L 382 740 Z M 382 448 " clip-rule="nonzero"/></clipPath></defs><g clip-path="url(#8911aa063f)"><path fill="#bababa" d="M 149.164062 441.105469 L 399.617188 441.105469 C 400.5625 441.105469 401.507812 441.152344 402.449219 441.242188 C 403.390625 441.335938 404.328125 441.476562 405.253906 441.660156 C 406.183594 441.84375 407.101562 442.074219 408.007812 442.347656 C 408.910156 442.625 409.800781 442.941406 410.675781 443.304688 C 411.550781 443.664062 412.40625 444.070312 413.238281 444.515625 C 414.074219 444.960938 414.886719 445.449219 415.671875 445.972656 C 416.460938 446.5 417.21875 447.0625 417.949219 447.664062 C 418.683594 448.265625 419.382812 448.898438 420.050781 449.566406 C 420.722656 450.238281 421.355469 450.9375 421.957031 451.667969 C 422.554688 452.402344 423.121094 453.160156 423.644531 453.949219 C 424.171875 454.734375 424.65625 455.546875 425.101562 456.378906 C 425.550781 457.214844 425.953125 458.070312 426.316406 458.945312 C 426.679688 459.816406 426.996094 460.707031 427.269531 461.613281 C 427.546875 462.519531 427.777344 463.4375 427.960938 464.363281 C 428.144531 465.292969 428.285156 466.226562 428.375 467.171875 C 428.46875 468.113281 428.515625 469.054688 428.515625 470.003906 L 428.515625 718.046875 C 428.515625 718.996094 428.46875 719.9375 428.375 720.882812 C 428.285156 721.824219 428.144531 722.757812 427.960938 723.6875 C 427.777344 724.613281 427.546875 725.53125 427.269531 726.4375 C 426.996094 727.34375 426.679688 728.234375 426.316406 729.105469 C 425.953125 729.980469 425.550781 730.835938 425.101562 731.671875 C 424.65625 732.503906 424.171875 733.316406 423.644531 734.105469 C 423.121094 734.890625 422.554688 735.648438 421.957031 736.382812 C 421.355469 737.113281 420.722656 737.8125 420.050781 738.484375 C 419.382812 739.152344 418.683594 739.785156 417.949219 740.386719 C 417.21875 740.988281 416.460938 741.550781 415.671875 742.078125 C 414.886719 742.601562 414.074219 743.089844 413.238281 743.535156 C 412.40625 743.980469 411.550781 744.386719 410.675781 744.746094 C 409.800781 745.109375 408.910156 745.429688 408.007812 745.703125 C 407.101562 745.976562 406.183594 746.207031 405.253906 746.390625 C 404.328125 746.578125 403.390625 746.714844 402.449219 746.808594 C 401.507812 746.902344 400.5625 746.945312 399.617188 746.945312 L 149.164062 746.945312 C 148.214844 746.945312 147.273438 746.902344 146.332031 746.808594 C 145.390625 746.714844 144.453125 746.578125 143.527344 746.390625 C 142.597656 746.207031 141.679688 745.976562 140.773438 745.703125 C 139.867188 745.429688 138.980469 745.109375 138.105469 744.746094 C 137.230469 744.386719 136.375 743.980469 135.539062 743.535156 C 134.707031 743.089844 133.894531 742.601562 133.109375 742.078125 C 132.320312 741.550781 131.5625 740.988281 130.832031 740.386719 C 130.097656 739.785156 129.398438 739.152344 128.730469 738.484375 C 128.058594 737.8125 127.425781 737.113281 126.824219 736.382812 C 126.222656 735.648438 125.660156 734.890625 125.136719 734.101562 C 124.609375 733.316406 124.125 732.503906 123.675781 731.671875 C 123.230469 730.835938 122.828125 729.980469 122.464844 729.105469 C 122.101562 728.234375 121.785156 727.34375 121.507812 726.4375 C 121.234375 725.53125 121.003906 724.613281 120.820312 723.6875 C 120.636719 722.757812 120.496094 721.824219 120.402344 720.882812 C 120.3125 719.9375 120.265625 718.996094 120.265625 718.046875 L 120.265625 470.003906 C 120.265625 469.054688 120.3125 468.113281 120.402344 467.171875 C 120.496094 466.226562 120.636719 465.292969 120.820312 464.363281 C 121.003906 463.4375 121.234375 462.519531 121.507812 461.613281 C 121.785156 460.707031 122.101562 459.816406 122.464844 458.945312 C 122.828125 458.070312 123.230469 457.214844 123.675781 456.378906 C 124.125 455.546875 124.609375 454.734375 125.136719 453.949219 C 125.660156 453.160156 126.222656 452.402344 126.824219 451.667969 C 127.425781 450.9375 128.058594 450.238281 128.730469 449.566406 C 129.398438 448.898438 130.097656 448.265625 130.832031 447.664062 C 131.5625 447.0625 132.320312 446.5 133.109375 445.972656 C 133.894531 445.449219 134.707031 444.960938 135.539062 444.515625 C 136.375 444.070312 137.230469 443.664062 138.105469 443.304688 C 138.980469 442.941406 139.867188 442.625 140.773438 442.347656 C 141.679688 442.074219 142.597656 441.84375 143.527344 441.660156 C 144.453125 441.476562 145.390625 441.335938 146.332031 441.242188 C 147.273438 441.152344 148.214844 441.105469 149.164062 441.105469 Z M 149.164062 441.105469 " fill-opacity="1" fill-rule="evenodd"/></g><g clip-path="url(#fd2101cb04)"><path fill="#d3d3d3" d="M 120.265625 470.003906 L 120.265625 718.046875 C 120.265625 726.476562 123.878906 733.703125 129.296875 739.121094 L 166.019531 702.394531 C 161.804688 698.78125 158.796875 693.363281 158.796875 686.742188 L 158.796875 501.308594 C 158.796875 494.6875 161.804688 489.269531 166.019531 485.65625 L 129.296875 448.929688 C 123.878906 454.347656 120.265625 461.574219 120.265625 470.003906 Z M 120.265625 470.003906 " fill-opacity="1" fill-rule="evenodd"/></g><path fill="#f4f4f4" d="M 180.46875 479.636719 L 368.308594 479.636719 C 373.730469 479.636719 379.148438 482.042969 382.761719 485.65625 L 419.484375 448.929688 C 414.066406 444.113281 407.445312 441.105469 399.617188 441.105469 L 149.164062 441.105469 C 141.335938 441.105469 134.714844 444.113281 129.296875 448.929688 L 166.019531 485.65625 C 169.632812 482.042969 175.050781 479.636719 180.46875 479.636719 Z M 180.46875 479.636719 " fill-opacity="1" fill-rule="evenodd"/><g clip-path="url(#910810464a)"><path fill="#d3d3d3" d="M 389.984375 501.308594 L 389.984375 686.742188 C 389.984375 693.363281 386.972656 698.78125 382.761719 702.394531 L 419.484375 739.121094 C 424.902344 733.703125 428.515625 726.476562 428.515625 718.046875 L 428.515625 470.003906 C 428.515625 461.574219 424.902344 454.347656 419.484375 448.929688 L 382.761719 485.65625 C 386.972656 489.269531 389.984375 494.6875 389.984375 501.308594 Z M 389.984375 501.308594 " fill-opacity="1" fill-rule="evenodd"/></g><path fill="#e5e5e5" d="M 180.46875 479.636719 L 367.707031 479.636719 C 368.417969 479.636719 369.125 479.671875 369.832031 479.738281 C 370.539062 479.808594 371.242188 479.914062 371.9375 480.050781 C 372.632812 480.191406 373.320312 480.363281 374 480.570312 C 374.679688 480.773438 375.347656 481.011719 376.003906 481.285156 C 376.660156 481.558594 377.300781 481.859375 377.925781 482.195312 C 378.550781 482.527344 379.160156 482.894531 379.75 483.289062 C 380.339844 483.683594 380.910156 484.105469 381.457031 484.554688 C 382.007812 485.003906 382.53125 485.480469 383.035156 485.984375 C 383.535156 486.484375 384.011719 487.011719 384.460938 487.558594 C 384.914062 488.109375 385.335938 488.675781 385.730469 489.269531 C 386.125 489.859375 386.488281 490.464844 386.824219 491.09375 C 387.15625 491.71875 387.460938 492.359375 387.734375 493.015625 C 388.003906 493.671875 388.242188 494.339844 388.449219 495.019531 C 388.65625 495.695312 388.828125 496.382812 388.964844 497.082031 C 389.105469 497.777344 389.207031 498.476562 389.277344 499.183594 C 389.347656 499.890625 389.382812 500.597656 389.382812 501.308594 L 389.382812 686.742188 C 389.382812 687.453125 389.347656 688.160156 389.277344 688.867188 C 389.207031 689.574219 389.105469 690.273438 388.964844 690.96875 C 388.828125 691.667969 388.65625 692.355469 388.449219 693.035156 C 388.242188 693.710938 388.003906 694.378906 387.734375 695.035156 C 387.460938 695.691406 387.15625 696.332031 386.824219 696.957031 C 386.488281 697.585938 386.125 698.191406 385.730469 698.78125 C 385.335938 699.375 384.914062 699.941406 384.460938 700.492188 C 384.011719 701.039062 383.535156 701.566406 383.035156 702.066406 C 382.53125 702.570312 382.007812 703.046875 381.457031 703.496094 C 380.910156 703.945312 380.339844 704.367188 379.75 704.761719 C 379.160156 705.15625 378.550781 705.523438 377.925781 705.855469 C 377.300781 706.191406 376.660156 706.492188 376.003906 706.765625 C 375.347656 707.039062 374.679688 707.277344 374 707.480469 C 373.320312 707.6875 372.632812 707.859375 371.9375 708 C 371.242188 708.136719 370.539062 708.242188 369.832031 708.3125 C 369.125 708.378906 368.417969 708.414062 367.707031 708.414062 L 180.46875 708.414062 C 179.761719 708.414062 179.050781 708.378906 178.34375 708.3125 C 177.640625 708.242188 176.9375 708.136719 176.242188 708 C 175.546875 707.859375 174.859375 707.6875 174.179688 707.480469 C 173.5 707.277344 172.832031 707.039062 172.175781 706.765625 C 171.519531 706.492188 170.878906 706.191406 170.253906 705.855469 C 169.628906 705.523438 169.019531 705.15625 168.429688 704.761719 C 167.839844 704.367188 167.269531 703.945312 166.71875 703.496094 C 166.171875 703.046875 165.644531 702.570312 165.144531 702.066406 C 164.640625 701.566406 164.167969 701.039062 163.714844 700.492188 C 163.265625 699.941406 162.84375 699.375 162.449219 698.78125 C 162.054688 698.191406 161.691406 697.585938 161.355469 696.957031 C 161.019531 696.332031 160.71875 695.691406 160.445312 695.035156 C 160.175781 694.378906 159.933594 693.710938 159.730469 693.035156 C 159.523438 692.355469 159.351562 691.667969 159.210938 690.96875 C 159.074219 690.273438 158.96875 689.574219 158.902344 688.867188 C 158.832031 688.160156 158.796875 687.453125 158.796875 686.742188 L 158.796875 501.308594 C 158.796875 500.597656 158.832031 499.890625 158.902344 499.183594 C 158.96875 498.476562 159.074219 497.777344 159.210938 497.082031 C 159.351562 496.382812 159.523438 495.695312 159.730469 495.019531 C 159.933594 494.339844 160.175781 493.671875 160.445312 493.015625 C 160.71875 492.359375 161.019531 491.71875 161.355469 491.09375 C 161.691406 490.464844 162.054688 489.859375 162.449219 489.269531 C 162.84375 488.675781 163.265625 488.109375 163.714844 487.558594 C 164.167969 487.011719 164.640625 486.484375 165.144531 485.984375 C 165.644531 485.480469 166.171875 485.003906 166.71875 484.554688 C 167.269531 484.105469 167.839844 483.683594 168.429688 483.289062 C 169.019531 482.894531 169.628906 482.527344 170.253906 482.195312 C 170.878906 481.859375 171.519531 481.558594 172.175781 481.285156 C 172.832031 481.011719 173.5 480.773438 174.179688 480.570312 C 174.859375 480.363281 175.546875 480.191406 176.242188 480.050781 C 176.9375 479.914062 177.640625 479.808594 178.34375 479.738281 C 179.050781 479.671875 179.761719 479.636719 180.46875 479.636719 Z M 180.46875 479.636719 " fill-opacity="1" fill-rule="evenodd"/><path fill="#d3d3d3" d="M 182.277344 734.90625 C 180.46875 734.90625 178.664062 733.703125 178.664062 731.894531 C 178.664062 730.089844 180.46875 728.886719 182.277344 728.886719 L 245.492188 728.886719 C 247.296875 728.886719 248.503906 730.089844 248.503906 731.894531 C 248.503906 733.703125 247.296875 734.90625 245.492188 734.90625 Z M 182.277344 734.90625 " fill-opacity="1" fill-rule="evenodd"/><path fill="#d3d3d3" d="M 269.574219 734.90625 C 267.769531 734.90625 266.5625 733.703125 266.5625 731.894531 C 266.5625 730.089844 267.769531 728.886719 269.574219 728.886719 L 285.226562 728.886719 C 287.035156 728.886719 288.238281 730.089844 288.238281 731.894531 C 288.238281 733.703125 287.035156 734.90625 285.226562 734.90625 Z M 269.574219 734.90625 " fill-opacity="1" fill-rule="evenodd"/><path fill="#eaeaea" d="M 414.066406 604.261719 C 414.066406 606.066406 412.863281 607.269531 411.054688 607.269531 C 409.25 607.269531 408.046875 606.066406 408.046875 604.261719 L 408.046875 541.042969 C 408.046875 539.238281 409.25 538.035156 411.054688 538.035156 C 412.863281 538.035156 414.066406 539.238281 414.066406 541.042969 Z M 414.066406 604.261719 " fill-opacity="1" fill-rule="evenodd"/><path fill="#eaeaea" d="M 414.066406 516.359375 C 414.066406 518.167969 412.863281 519.972656 411.054688 519.972656 C 409.25 519.972656 408.046875 518.167969 408.046875 516.359375 L 408.046875 500.707031 C 408.046875 499.503906 409.25 497.695312 411.054688 497.695312 C 412.863281 497.695312 414.066406 499.503906 414.066406 500.707031 Z M 414.066406 516.359375 " fill-opacity="1" fill-rule="evenodd"/><path fill="#909192" d="M 283.421875 594.027344 C 282.820312 594.027344 282.21875 594.027344 282.21875 593.421875 C 281.011719 592.820312 280.410156 592.21875 280.410156 591.015625 L 280.410156 568.136719 L 226.226562 568.136719 C 224.417969 568.136719 223.214844 566.933594 223.214844 565.125 L 223.214844 527.800781 C 223.214844 525.992188 224.417969 524.789062 226.226562 524.789062 L 280.410156 524.789062 L 280.410156 501.308594 C 280.410156 500.105469 281.011719 499.503906 282.21875 498.902344 C 282.820312 498.300781 284.023438 498.300781 285.226562 498.902344 L 352.65625 544.054688 C 353.257812 544.65625 353.859375 545.257812 353.859375 546.464844 C 353.859375 547.667969 353.257812 548.269531 352.65625 548.871094 L 285.226562 593.421875 C 284.625 594.027344 284.023438 594.027344 283.421875 594.027344 Z M 265.359375 689.75 C 264.757812 689.75 264.15625 689.75 263.554688 689.148438 L 196.125 643.996094 C 195.519531 643.394531 194.917969 642.792969 194.917969 641.585938 C 194.917969 640.382812 195.519531 639.78125 196.125 639.179688 L 263.554688 594.628906 C 264.757812 594.027344 265.960938 594.027344 266.5625 594.628906 C 267.769531 595.230469 268.371094 595.832031 268.371094 597.035156 L 268.371094 619.914062 L 322.554688 619.914062 C 324.359375 619.914062 325.566406 621.117188 325.566406 622.925781 L 325.566406 660.25 C 325.566406 662.058594 324.359375 663.261719 322.554688 663.261719 L 268.371094 663.261719 L 268.371094 686.742188 C 268.371094 687.945312 267.769531 688.546875 266.5625 689.148438 C 266.5625 689.75 265.960938 689.75 265.359375 689.75 Z M 265.359375 689.75 " fill-opacity="1" fill-rule="evenodd"/><path fill="#909192" d="M 197.929688 568.136719 C 196.125 568.136719 194.917969 566.933594 194.917969 565.125 L 194.917969 527.800781 C 194.917969 525.992188 196.125 524.789062 197.929688 524.789062 C 199.734375 524.789062 200.941406 525.992188 200.941406 527.800781 L 200.941406 565.125 C 200.941406 566.933594 199.734375 568.136719 197.929688 568.136719 Z M 197.929688 568.136719 " fill-opacity="1" fill-rule="evenodd"/><path fill="#909192" d="M 350.851562 663.261719 C 349.042969 663.261719 347.839844 662.058594 347.839844 660.25 L 347.839844 622.925781 C 347.839844 621.117188 349.042969 619.914062 350.851562 619.914062 C 352.65625 619.914062 353.859375 621.117188 353.859375 622.925781 L 353.859375 660.25 C 353.859375 662.058594 352.65625 663.261719 350.851562 663.261719 Z M 350.851562 663.261719 " fill-opacity="1" fill-rule="evenodd"/><g fill="#368065" fill-opacity="0.4"><g transform="translate(120.72775, 320.187266)"><g><path d="M 15.390625 -244.859375 L 275.640625 -244.859375 L 275.640625 -212.671875 L 33.9375 -212.671875 C 37.664062 -212.671875 40.867188 -211.328125 43.546875 -208.640625 C 46.234375 -205.960938 47.578125 -202.644531 47.578125 -198.6875 L 47.578125 -103.546875 L 155.65625 -103.546875 L 155.65625 -71.359375 L 47.578125 -71.359375 L 47.578125 37.78125 L 275.640625 37.78125 L 275.640625 69.953125 L 15.390625 69.953125 Z M 15.390625 -244.859375 "/></g></g></g><g fill="#368065" fill-opacity="0.4"><g transform="translate(411.76025, 320.187266)"><g><path d="M 160.203125 -174.890625 L 106.6875 -87.453125 L 160.203125 0 L 122.421875 0 L 87.796875 -56.671875 L 53.171875 0 L 15.390625 0 L 68.90625 -87.453125 L 15.390625 -174.890625 L 53.171875 -174.890625 L 87.796875 -118.234375 L 122.421875 -174.890625 Z M 160.203125 -174.890625 "/></g></g></g><g fill="#368065" fill-opacity="0.4"><g transform="translate(587.359213, 320.187266)"><g><path d="M 47.578125 -32.1875 L 47.578125 0 L 15.390625 0 L 15.390625 -174.890625 L 88.84375 -174.890625 C 101.90625 -174.890625 113.859375 -171.679688 124.703125 -165.265625 C 135.546875 -158.859375 144.171875 -150.289062 150.578125 -139.5625 C 156.992188 -128.84375 160.203125 -116.835938 160.203125 -103.546875 C 160.203125 -90.484375 156.992188 -78.53125 150.578125 -67.6875 C 144.171875 -56.84375 135.546875 -48.210938 124.703125 -41.796875 C 113.859375 -35.390625 101.90625 -32.1875 88.84375 -32.1875 Z M 128.03125 -103.546875 C 128.03125 -110.773438 126.28125 -117.359375 122.78125 -123.296875 C 119.28125 -129.242188 114.554688 -133.96875 108.609375 -137.46875 C 102.660156 -140.96875 96.070312 -142.71875 88.84375 -142.71875 L 31.484375 -142.71875 C 35.910156 -142.71875 39.695312 -141.140625 42.84375 -137.984375 C 46 -134.835938 47.578125 -131.050781 47.578125 -126.625 L 47.578125 -64.359375 L 88.84375 -64.359375 C 96.070312 -64.359375 102.660156 -66.164062 108.609375 -69.78125 C 114.554688 -73.394531 119.28125 -78.117188 122.78125 -83.953125 C 126.28125 -89.785156 128.03125 -96.316406 128.03125 -103.546875 Z M 128.03125 -103.546875 "/></g></g></g><g fill="#368065" fill-opacity="0.4"><g transform="translate(762.958177, 320.187266)"><g><path d="M 49.328125 0 L 15.390625 0 L 71.015625 -174.890625 L 104.59375 -174.890625 L 160.203125 0 L 126.28125 0 L 116.125 -32.1875 L 59.46875 -32.1875 Z M 105.984375 -64.71875 L 87.796875 -121.734375 L 69.609375 -64.71875 Z M 105.984375 -64.71875 "/></g></g></g><g fill="#368065" fill-opacity="0.4"><g transform="translate(938.55714, 320.187266)"><g><path d="M 47.578125 -122.421875 L 47.578125 0 L 15.390625 0 L 15.390625 -174.890625 L 53.171875 -174.890625 L 87.796875 -118.234375 L 106.6875 -87.453125 L 128.03125 -52.8125 L 128.03125 -174.890625 L 160.203125 -174.890625 L 160.203125 0 L 122.421875 0 L 87.796875 -56.671875 L 68.90625 -87.453125 Z M 47.578125 -122.421875 "/></g></g></g><g fill="#368065" fill-opacity="0.4"><g transform="translate(1114.156104, 320.187266)"><g><path d="M 103.1875 0 L 15.390625 0 L 15.390625 -174.890625 L 103.1875 -174.890625 C 119.28125 -174.890625 133.914062 -170.984375 147.09375 -163.171875 C 160.269531 -155.367188 170.820312 -144.816406 178.75 -131.515625 C 186.675781 -118.222656 190.640625 -103.535156 190.640625 -87.453125 C 190.640625 -71.359375 186.675781 -56.722656 178.75 -43.546875 C 170.820312 -30.367188 160.269531 -19.816406 147.09375 -11.890625 C 133.914062 -3.960938 119.28125 0 103.1875 0 Z M 31.484375 -32.1875 L 103.1875 -32.1875 C 113.21875 -32.1875 122.429688 -34.632812 130.828125 -39.53125 C 139.222656 -44.425781 145.925781 -51.070312 150.9375 -59.46875 C 155.945312 -67.863281 158.453125 -77.191406 158.453125 -87.453125 C 158.453125 -97.710938 155.945312 -107.039062 150.9375 -115.4375 C 145.925781 -123.832031 139.222656 -130.535156 130.828125 -135.546875 C 122.429688 -140.554688 113.21875 -143.0625 103.1875 -143.0625 L 47.578125 -143.0625 L 47.578125 -48.265625 C 47.578125 -43.835938 46 -40.050781 42.84375 -36.90625 C 39.695312 -33.757812 35.910156 -32.1875 31.484375 -32.1875 Z M 31.484375 -32.1875 "/></g></g></g><g fill="#368065" fill-opacity="1"><g transform="translate(105.268698, 304.728216)"><g><path d="M 15.390625 -244.859375 L 275.640625 -244.859375 L 275.640625 -212.671875 L 33.9375 -212.671875 C 37.664062 -212.671875 40.867188 -211.328125 43.546875 -208.640625 C 46.234375 -205.960938 47.578125 -202.644531 47.578125 -198.6875 L 47.578125 -103.546875 L 155.65625 -103.546875 L 155.65625 -71.359375 L 47.578125 -71.359375 L 47.578125 37.78125 L 275.640625 37.78125 L 275.640625 69.953125 L 15.390625 69.953125 Z M 15.390625 -244.859375 "/></g></g></g><g fill="#368065" fill-opacity="1"><g transform="translate(396.301198, 304.728216)"><g><path d="M 160.203125 -174.890625 L 106.6875 -87.453125 L 160.203125 0 L 122.421875 0 L 87.796875 -56.671875 L 53.171875 0 L 15.390625 0 L 68.90625 -87.453125 L 15.390625 -174.890625 L 53.171875 -174.890625 L 87.796875 -118.234375 L 122.421875 -174.890625 Z M 160.203125 -174.890625 "/></g></g></g><g fill="#368065" fill-opacity="1"><g transform="translate(571.900161, 304.728216)"><g><path d="M 47.578125 -32.1875 L 47.578125 0 L 15.390625 0 L 15.390625 -174.890625 L 88.84375 -174.890625 C 101.90625 -174.890625 113.859375 -171.679688 124.703125 -165.265625 C 135.546875 -158.859375 144.171875 -150.289062 150.578125 -139.5625 C 156.992188 -128.84375 160.203125 -116.835938 160.203125 -103.546875 C 160.203125 -90.484375 156.992188 -78.53125 150.578125 -67.6875 C 144.171875 -56.84375 135.546875 -48.210938 124.703125 -41.796875 C 113.859375 -35.390625 101.90625 -32.1875 88.84375 -32.1875 Z M 128.03125 -103.546875 C 128.03125 -110.773438 126.28125 -117.359375 122.78125 -123.296875 C 119.28125 -129.242188 114.554688 -133.96875 108.609375 -137.46875 C 102.660156 -140.96875 96.070312 -142.71875 88.84375 -142.71875 L 31.484375 -142.71875 C 35.910156 -142.71875 39.695312 -141.140625 42.84375 -137.984375 C 46 -134.835938 47.578125 -131.050781 47.578125 -126.625 L 47.578125 -64.359375 L 88.84375 -64.359375 C 96.070312 -64.359375 102.660156 -66.164062 108.609375 -69.78125 C 114.554688 -73.394531 119.28125 -78.117188 122.78125 -83.953125 C 126.28125 -89.785156 128.03125 -96.316406 128.03125 -103.546875 Z M 128.03125 -103.546875 "/></g></g></g><g fill="#368065" fill-opacity="1"><g transform="translate(747.499125, 304.728216)"><g><path d="M 49.328125 0 L 15.390625 0 L 71.015625 -174.890625 L 104.59375 -174.890625 L 160.203125 0 L 126.28125 0 L 116.125 -32.1875 L 59.46875 -32.1875 Z M 105.984375 -64.71875 L 87.796875 -121.734375 L 69.609375 -64.71875 Z M 105.984375 -64.71875 "/></g></g></g><g fill="#368065" fill-opacity="1"><g transform="translate(923.098088, 304.728216)"><g><path d="M 47.578125 -122.421875 L 47.578125 0 L 15.390625 0 L 15.390625 -174.890625 L 53.171875 -174.890625 L 87.796875 -118.234375 L 106.6875 -87.453125 L 128.03125 -52.8125 L 128.03125 -174.890625 L 160.203125 -174.890625 L 160.203125 0 L 122.421875 0 L 87.796875 -56.671875 L 68.90625 -87.453125 Z M 47.578125 -122.421875 "/></g></g></g><g fill="#368065" fill-opacity="1"><g transform="translate(1098.697052, 304.728216)"><g><path d="M 103.1875 0 L 15.390625 0 L 15.390625 -174.890625 L 103.1875 -174.890625 C 119.28125 -174.890625 133.914062 -170.984375 147.09375 -163.171875 C 160.269531 -155.367188 170.820312 -144.816406 178.75 -131.515625 C 186.675781 -118.222656 190.640625 -103.535156 190.640625 -87.453125 C 190.640625 -71.359375 186.675781 -56.722656 178.75 -43.546875 C 170.820312 -30.367188 160.269531 -19.816406 147.09375 -11.890625 C 133.914062 -3.960938 119.28125 0 103.1875 0 Z M 31.484375 -32.1875 L 103.1875 -32.1875 C 113.21875 -32.1875 122.429688 -34.632812 130.828125 -39.53125 C 139.222656 -44.425781 145.925781 -51.070312 150.9375 -59.46875 C 155.945312 -67.863281 158.453125 -77.191406 158.453125 -87.453125 C 158.453125 -97.710938 155.945312 -107.039062 150.9375 -115.4375 C 145.925781 -123.832031 139.222656 -130.535156 130.828125 -135.546875 C 122.429688 -140.554688 113.21875 -143.0625 103.1875 -143.0625 L 47.578125 -143.0625 L 47.578125 -48.265625 C 47.578125 -43.835938 46 -40.050781 42.84375 -36.90625 C 39.695312 -33.757812 35.910156 -32.1875 31.484375 -32.1875 Z M 31.484375 -32.1875 "/></g></g></g><g fill="#368065" fill-opacity="0.4"><g transform="translate(475.924254, 709.234831)"><g><path d="M 74.0625 0 L 74.0625 -147.421875 L 15.890625 -147.421875 L 15.890625 -180.65625 L 165.484375 -180.65625 L 165.484375 -147.421875 L 90.6875 -147.421875 C 95.257812 -147.421875 99.171875 -145.789062 102.421875 -142.53125 C 105.679688 -139.28125 107.3125 -135.367188 107.3125 -130.796875 L 107.3125 0 Z M 74.0625 0 "/></g></g></g><g fill="#368065" fill-opacity="0.4"><g transform="translate(657.305855, 709.234831)"><g><path d="M 50.9375 0 L 15.890625 0 L 73.34375 -180.65625 L 108.03125 -180.65625 L 165.484375 0 L 130.4375 0 L 119.953125 -33.234375 L 61.421875 -33.234375 Z M 109.484375 -66.84375 L 90.6875 -125.734375 L 71.90625 -66.84375 Z M 109.484375 -66.84375 "/></g></g></g><g fill="#368065" fill-opacity="0.4"><g transform="translate(838.687457, 709.234831)"><g><path d="M 15.890625 0 L 15.890625 -180.65625 L 112 -180.65625 C 121.882812 -180.65625 130.859375 -178.242188 138.921875 -173.421875 C 146.992188 -168.609375 153.4375 -162.164062 158.25 -154.09375 C 163.070312 -146.03125 165.484375 -137.0625 165.484375 -127.1875 C 165.484375 -119.957031 164.15625 -113.207031 161.5 -106.9375 C 158.851562 -100.675781 155.242188 -95.140625 150.671875 -90.328125 C 155.242188 -85.515625 158.851562 -79.972656 161.5 -73.703125 C 164.15625 -67.441406 165.484375 -60.695312 165.484375 -53.46875 C 165.484375 -43.59375 163.070312 -34.617188 158.25 -26.546875 C 153.4375 -18.484375 146.992188 -12.039062 138.921875 -7.21875 C 130.859375 -2.40625 121.882812 0 112 0 Z M 112 -33.234375 C 117.539062 -33.234375 122.296875 -35.21875 126.265625 -39.1875 C 130.242188 -43.164062 132.234375 -47.925781 132.234375 -53.46875 C 132.234375 -59.007812 130.242188 -63.765625 126.265625 -67.734375 C 122.296875 -71.710938 117.539062 -73.703125 112 -73.703125 L 32.515625 -73.703125 C 37.097656 -73.703125 41.015625 -72.078125 44.265625 -68.828125 C 47.515625 -65.578125 49.140625 -61.664062 49.140625 -57.09375 L 49.140625 -33.234375 Z M 112 -147.421875 L 49.140625 -147.421875 L 49.140625 -106.953125 L 112 -106.953125 C 117.539062 -106.953125 122.296875 -108.9375 126.265625 -112.90625 C 130.242188 -116.882812 132.234375 -121.644531 132.234375 -127.1875 C 132.234375 -132.71875 130.242188 -137.472656 126.265625 -141.453125 C 122.296875 -145.429688 117.539062 -147.421875 112 -147.421875 Z M 112 -147.421875 "/></g></g></g><g fill="#368065" fill-opacity="0.4"><g transform="translate(1020.069058, 709.234831)"><g><path d="M 105.5 -252.921875 L 195.109375 -252.921875 C 211.484375 -252.921875 226.472656 -248.882812 240.078125 -240.8125 C 253.691406 -232.738281 264.535156 -221.894531 272.609375 -208.28125 C 280.679688 -194.675781 284.71875 -179.6875 284.71875 -163.3125 L 251.46875 -163.3125 C 251.46875 -173.664062 248.9375 -183.117188 243.875 -191.671875 C 238.820312 -200.222656 232.019531 -207.023438 223.46875 -212.078125 C 214.914062 -217.140625 205.460938 -219.671875 195.109375 -219.671875 L 105.5 -219.671875 C 95.144531 -219.671875 85.691406 -217.140625 77.140625 -212.078125 C 68.585938 -207.023438 61.78125 -200.222656 56.71875 -191.671875 C 51.664062 -183.117188 49.140625 -173.664062 49.140625 -163.3125 C 49.140625 -152.957031 51.664062 -143.503906 56.71875 -134.953125 C 61.78125 -126.398438 68.585938 -119.59375 77.140625 -114.53125 C 85.691406 -109.476562 95.144531 -106.953125 105.5 -106.953125 L 195.109375 -106.953125 C 211.484375 -106.953125 226.472656 -102.914062 240.078125 -94.84375 C 253.691406 -86.769531 264.535156 -75.988281 272.609375 -62.5 C 280.679688 -49.019531 284.71875 -33.96875 284.71875 -17.34375 C 284.71875 -0.96875 280.679688 14.019531 272.609375 27.625 C 264.535156 41.238281 253.691406 52.082031 240.078125 60.15625 C 226.472656 68.226562 211.484375 72.265625 195.109375 72.265625 L 105.5 72.265625 C 89.125 72.265625 74.128906 68.226562 60.515625 60.15625 C 46.910156 52.082031 36.070312 41.238281 28 27.625 C 19.925781 14.019531 15.890625 -0.96875 15.890625 -17.34375 L 49.140625 -17.34375 C 49.140625 -6.988281 51.664062 2.460938 56.71875 11.015625 C 61.78125 19.566406 68.585938 26.367188 77.140625 31.421875 C 85.691406 36.484375 95.144531 39.015625 105.5 39.015625 L 195.109375 39.015625 C 205.460938 39.015625 214.914062 36.484375 223.46875 31.421875 C 232.019531 26.367188 238.820312 19.566406 243.875 11.015625 C 248.9375 2.460938 251.46875 -6.988281 251.46875 -17.34375 C 251.46875 -27.695312 248.9375 -37.148438 243.875 -45.703125 C 238.820312 -54.253906 232.019531 -61.054688 223.46875 -66.109375 C 214.914062 -71.171875 205.460938 -73.703125 195.109375 -73.703125 L 105.5 -73.703125 C 89.125 -73.703125 74.128906 -77.738281 60.515625 -85.8125 C 46.910156 -93.882812 36.070312 -104.722656 28 -118.328125 C 19.925781 -131.941406 15.890625 -146.9375 15.890625 -163.3125 C 15.890625 -179.6875 19.925781 -194.675781 28 -208.28125 C 36.070312 -221.894531 46.910156 -232.738281 60.515625 -240.8125 C 74.128906 -248.882812 89.125 -252.921875 105.5 -252.921875 Z M 105.5 -252.921875 "/></g></g></g><g fill="#368065" fill-opacity="1"><g transform="translate(459.956119, 693.266686)"><g><path d="M 74.0625 0 L 74.0625 -147.421875 L 15.890625 -147.421875 L 15.890625 -180.65625 L 165.484375 -180.65625 L 165.484375 -147.421875 L 90.6875 -147.421875 C 95.257812 -147.421875 99.171875 -145.789062 102.421875 -142.53125 C 105.679688 -139.28125 107.3125 -135.367188 107.3125 -130.796875 L 107.3125 0 Z M 74.0625 0 "/></g></g></g><g fill="#368065" fill-opacity="1"><g transform="translate(641.33772, 693.266686)"><g><path d="M 50.9375 0 L 15.890625 0 L 73.34375 -180.65625 L 108.03125 -180.65625 L 165.484375 0 L 130.4375 0 L 119.953125 -33.234375 L 61.421875 -33.234375 Z M 109.484375 -66.84375 L 90.6875 -125.734375 L 71.90625 -66.84375 Z M 109.484375 -66.84375 "/></g></g></g><g fill="#368065" fill-opacity="1"><g transform="translate(822.719322, 693.266686)"><g><path d="M 15.890625 0 L 15.890625 -180.65625 L 112 -180.65625 C 121.882812 -180.65625 130.859375 -178.242188 138.921875 -173.421875 C 146.992188 -168.609375 153.4375 -162.164062 158.25 -154.09375 C 163.070312 -146.03125 165.484375 -137.0625 165.484375 -127.1875 C 165.484375 -119.957031 164.15625 -113.207031 161.5 -106.9375 C 158.851562 -100.675781 155.242188 -95.140625 150.671875 -90.328125 C 155.242188 -85.515625 158.851562 -79.972656 161.5 -73.703125 C 164.15625 -67.441406 165.484375 -60.695312 165.484375 -53.46875 C 165.484375 -43.59375 163.070312 -34.617188 158.25 -26.546875 C 153.4375 -18.484375 146.992188 -12.039062 138.921875 -7.21875 C 130.859375 -2.40625 121.882812 0 112 0 Z M 112 -33.234375 C 117.539062 -33.234375 122.296875 -35.21875 126.265625 -39.1875 C 130.242188 -43.164062 132.234375 -47.925781 132.234375 -53.46875 C 132.234375 -59.007812 130.242188 -63.765625 126.265625 -67.734375 C 122.296875 -71.710938 117.539062 -73.703125 112 -73.703125 L 32.515625 -73.703125 C 37.097656 -73.703125 41.015625 -72.078125 44.265625 -68.828125 C 47.515625 -65.578125 49.140625 -61.664062 49.140625 -57.09375 L 49.140625 -33.234375 Z M 112 -147.421875 L 49.140625 -147.421875 L 49.140625 -106.953125 L 112 -106.953125 C 117.539062 -106.953125 122.296875 -108.9375 126.265625 -112.90625 C 130.242188 -116.882812 132.234375 -121.644531 132.234375 -127.1875 C 132.234375 -132.71875 130.242188 -137.472656 126.265625 -141.453125 C 122.296875 -145.429688 117.539062 -147.421875 112 -147.421875 Z M 112 -147.421875 "/></g></g></g><g fill="#368065" fill-opacity="1"><g transform="translate(1004.100923, 693.266686)"><g><path d="M 105.5 -252.921875 L 195.109375 -252.921875 C 211.484375 -252.921875 226.472656 -248.882812 240.078125 -240.8125 C 253.691406 -232.738281 264.535156 -221.894531 272.609375 -208.28125 C 280.679688 -194.675781 284.71875 -179.6875 284.71875 -163.3125 L 251.46875 -163.3125 C 251.46875 -173.664062 248.9375 -183.117188 243.875 -191.671875 C 238.820312 -200.222656 232.019531 -207.023438 223.46875 -212.078125 C 214.914062 -217.140625 205.460938 -219.671875 195.109375 -219.671875 L 105.5 -219.671875 C 95.144531 -219.671875 85.691406 -217.140625 77.140625 -212.078125 C 68.585938 -207.023438 61.78125 -200.222656 56.71875 -191.671875 C 51.664062 -183.117188 49.140625 -173.664062 49.140625 -163.3125 C 49.140625 -152.957031 51.664062 -143.503906 56.71875 -134.953125 C 61.78125 -126.398438 68.585938 -119.59375 77.140625 -114.53125 C 85.691406 -109.476562 95.144531 -106.953125 105.5 -106.953125 L 195.109375 -106.953125 C 211.484375 -106.953125 226.472656 -102.914062 240.078125 -94.84375 C 253.691406 -86.769531 264.535156 -75.988281 272.609375 -62.5 C 280.679688 -49.019531 284.71875 -33.96875 284.71875 -17.34375 C 284.71875 -0.96875 280.679688 14.019531 272.609375 27.625 C 264.535156 41.238281 253.691406 52.082031 240.078125 60.15625 C 226.472656 68.226562 211.484375 72.265625 195.109375 72.265625 L 105.5 72.265625 C 89.125 72.265625 74.128906 68.226562 60.515625 60.15625 C 46.910156 52.082031 36.070312 41.238281 28 27.625 C 19.925781 14.019531 15.890625 -0.96875 15.890625 -17.34375 L 49.140625 -17.34375 C 49.140625 -6.988281 51.664062 2.460938 56.71875 11.015625 C 61.78125 19.566406 68.585938 26.367188 77.140625 31.421875 C 85.691406 36.484375 95.144531 39.015625 105.5 39.015625 L 195.109375 39.015625 C 205.460938 39.015625 214.914062 36.484375 223.46875 31.421875 C 232.019531 26.367188 238.820312 19.566406 243.875 11.015625 C 248.9375 2.460938 251.46875 -6.988281 251.46875 -17.34375 C 251.46875 -27.695312 248.9375 -37.148438 243.875 -45.703125 C 238.820312 -54.253906 232.019531 -61.054688 223.46875 -66.109375 C 214.914062 -71.171875 205.460938 -73.703125 195.109375 -73.703125 L 105.5 -73.703125 C 89.125 -73.703125 74.128906 -77.738281 60.515625 -85.8125 C 46.910156 -93.882812 36.070312 -104.722656 28 -118.328125 C 19.925781 -131.941406 15.890625 -146.9375 15.890625 -163.3125 C 15.890625 -179.6875 19.925781 -194.675781 28 -208.28125 C 36.070312 -221.894531 46.910156 -232.738281 60.515625 -240.8125 C 74.128906 -248.882812 89.125 -252.921875 105.5 -252.921875 Z M 105.5 -252.921875 "/></g></g></g></svg>